<svg width="364" height="109" viewBox="0 0 364 109" fill="none" xmlns="http://www.w3.org/2000/svg">
<rect width="363.708" height="109" fill="white"/>
<path d="M117.077 61.4796H129.267V67.3626H109.657V30.3686H117.077V61.4796ZM135.467 30.3686H143.258L137.534 43.7246H132.446L135.467 30.3686ZM188.912 30.3686V67.3626H181.492V43.3006L171.581 67.3626H165.963L155.999 43.3006V67.3626H148.579V30.3686H157.006L168.772 57.8756L180.538 30.3686H188.912ZM194.34 52.5756C194.34 49.6076 194.923 46.9753 196.089 44.6786C197.29 42.3819 198.898 40.6153 200.912 39.3786C202.961 38.1419 205.24 37.5236 207.749 37.5236C209.939 37.5236 211.847 37.9653 213.473 38.8486C215.133 39.7319 216.458 40.8449 217.448 42.1876V38.0006H224.921V67.3626H217.448V63.0696C216.494 64.4476 215.169 65.5959 213.473 66.5146C211.812 67.3979 209.886 67.8396 207.696 67.8396C205.222 67.8396 202.961 67.2036 200.912 65.9316C198.898 64.6596 197.29 62.8753 196.089 60.5786C194.923 58.2466 194.34 55.5789 194.34 52.5756ZM217.448 52.6816C217.448 50.8796 217.094 49.3426 216.388 48.0706C215.681 46.7633 214.727 45.7739 213.526 45.1026C212.324 44.3959 211.035 44.0426 209.657 44.0426C208.279 44.0426 207.007 44.3783 205.841 45.0496C204.675 45.7209 203.721 46.7103 202.979 48.0176C202.272 49.2896 201.919 50.8089 201.919 52.5756C201.919 54.3423 202.272 55.8969 202.979 57.2396C203.721 58.5469 204.675 59.5539 205.841 60.2606C207.042 60.9673 208.314 61.3206 209.657 61.3206C211.035 61.3206 212.324 60.9849 213.526 60.3136C214.727 59.6069 215.681 58.6176 216.388 57.3456C217.094 56.0383 217.448 54.4836 217.448 52.6816ZM230.26 52.5756C230.26 49.6076 230.843 46.9753 232.009 44.6786C233.21 42.3819 234.818 40.6153 236.832 39.3786C238.881 38.1419 241.16 37.5236 243.669 37.5236C245.859 37.5236 247.767 37.9653 249.393 38.8486C251.053 39.7319 252.378 40.8449 253.368 42.1876V38.0006H260.841V67.3626H253.368V63.0696C252.414 64.4476 251.089 65.5959 249.393 66.5146C247.732 67.3979 245.806 67.8396 243.616 67.8396C241.142 67.8396 238.881 67.2036 236.832 65.9316C234.818 64.6596 233.21 62.8753 232.009 60.5786C230.843 58.2466 230.26 55.5789 230.26 52.5756ZM253.368 52.6816C253.368 50.8796 253.014 49.3426 252.308 48.0706C251.601 46.7633 250.647 45.7739 249.446 45.1026C248.244 44.3959 246.955 44.0426 245.577 44.0426C244.199 44.0426 242.927 44.3783 241.761 45.0496C240.595 45.7209 239.641 46.7103 238.899 48.0176C238.192 49.2896 237.839 50.8089 237.839 52.5756C237.839 54.3423 238.192 55.8969 238.899 57.2396C239.641 58.5469 240.595 59.5539 241.761 60.2606C242.962 60.9673 244.234 61.3206 245.577 61.3206C246.955 61.3206 248.244 60.9849 249.446 60.3136C250.647 59.6069 251.601 58.6176 252.308 57.3456C253.014 56.0383 253.368 54.4836 253.368 52.6816ZM274.872 61.2676H287.963V67.3626H266.445V61.3736L279.271 44.0956H266.498V38.0006H287.804V43.9896L274.872 61.2676ZM291.8 52.5756C291.8 49.6076 292.383 46.9753 293.549 44.6786C294.75 42.3819 296.358 40.6153 298.372 39.3786C300.421 38.1419 302.7 37.5236 305.209 37.5236C307.399 37.5236 309.307 37.9653 310.933 38.8486C312.593 39.7319 313.918 40.8449 314.908 42.1876V38.0006H322.381V67.3626H314.908V63.0696C313.954 64.4476 312.629 65.5959 310.933 66.5146C309.272 67.3979 307.346 67.8396 305.156 67.8396C302.682 67.8396 300.421 67.2036 298.372 65.9316C296.358 64.6596 294.75 62.8753 293.549 60.5786C292.383 58.2466 291.8 55.5789 291.8 52.5756ZM314.908 52.6816C314.908 50.8796 314.554 49.3426 313.848 48.0706C313.141 46.7633 312.187 45.7739 310.986 45.1026C309.784 44.3959 308.495 44.0426 307.117 44.0426C305.739 44.0426 304.467 44.3783 303.301 45.0496C302.135 45.7209 301.181 46.7103 300.439 48.0176C299.732 49.2896 299.379 50.8089 299.379 52.5756C299.379 54.3423 299.732 55.8969 300.439 57.2396C301.181 58.5469 302.135 59.5539 303.301 60.2606C304.502 60.9673 305.774 61.3206 307.117 61.3206C308.495 61.3206 309.784 60.9849 310.986 60.3136C312.187 59.6069 313.141 58.6176 313.848 57.3456C314.554 56.0383 314.908 54.4836 314.908 52.6816Z" fill="#2D2D2D"/>
<path d="M44.1667 94.4267H61.8333M35.3333 64.3818H70.6667M22.0833 38.6291C22.0833 30.6607 25.3406 23.0187 31.1386 17.3842C36.9366 11.7497 44.8004 8.58423 53 8.58423C61.1996 8.58423 69.0634 11.7497 74.8614 17.3842C80.6594 23.0187 83.9167 30.6607 83.9167 38.6291C83.9196 43.4666 82.7156 48.2328 80.408 52.5191C78.1003 56.8054 74.7578 60.4842 70.6667 63.2401L68.2728 74.2537C67.9559 76.2838 66.9007 78.1362 65.2987 79.4749C63.6967 80.8136 61.6539 81.55 59.5411 81.5503H46.4589C44.3461 81.55 42.3033 80.8136 40.7013 79.4749C39.0993 78.1362 38.0441 76.2838 37.7272 74.2537L35.3333 63.2874C31.2409 60.5216 27.8982 56.8342 25.5908 52.5403C23.2835 48.2463 22.08 43.4733 22.0833 38.6291V38.6291Z" stroke="#0D6EFD" stroke-width="7" stroke-linecap="round" stroke-linejoin="round"/>
</svg>
