<svg width="851" height="327" viewBox="0 0 851 327" fill="none" xmlns="http://www.w3.org/2000/svg">
<rect width="851" height="327" fill="#21252F"/>
<path d="M322.244 187.124H348.924V200H306.004V119.032H322.244V187.124ZM362.494 119.032H379.546L367.018 148.264H355.882L362.494 119.032ZM479.468 119.032V200H463.228V147.336L441.536 200H429.24L407.432 147.336V200H391.192V119.032H409.636L435.388 179.236L461.14 119.032H479.468ZM491.348 167.636C491.348 161.14 492.624 155.379 495.176 150.352C497.805 145.325 501.324 141.459 505.732 138.752C510.217 136.045 515.205 134.692 520.696 134.692C525.49 134.692 529.666 135.659 533.224 137.592C536.858 139.525 539.758 141.961 541.924 144.9V135.736H558.28V200H541.924V190.604C539.836 193.62 536.936 196.133 533.224 198.144C529.589 200.077 525.374 201.044 520.58 201.044C515.166 201.044 510.217 199.652 505.732 196.868C501.324 194.084 497.805 190.179 495.176 185.152C492.624 180.048 491.348 174.209 491.348 167.636ZM541.924 167.868C541.924 163.924 541.15 160.56 539.604 157.776C538.057 154.915 535.969 152.749 533.34 151.28C530.71 149.733 527.888 148.96 524.872 148.96C521.856 148.96 519.072 149.695 516.52 151.164C513.968 152.633 511.88 154.799 510.256 157.66C508.709 160.444 507.936 163.769 507.936 167.636C507.936 171.503 508.709 174.905 510.256 177.844C511.88 180.705 513.968 182.909 516.52 184.456C519.149 186.003 521.933 186.776 524.872 186.776C527.888 186.776 530.71 186.041 533.34 184.572C535.969 183.025 538.057 180.86 539.604 178.076C541.15 175.215 541.924 171.812 541.924 167.868ZM566.485 167.636C566.485 161.14 567.761 155.379 570.313 150.352C572.942 145.325 576.461 141.459 580.869 138.752C585.354 136.045 590.342 134.692 595.833 134.692C600.627 134.692 604.803 135.659 608.361 137.592C611.995 139.525 614.895 141.961 617.061 144.9V135.736H633.417V200H617.061V190.604C614.973 193.62 612.073 196.133 608.361 198.144C604.726 200.077 600.511 201.044 595.717 201.044C590.303 201.044 585.354 199.652 580.869 196.868C576.461 194.084 572.942 190.179 570.313 185.152C567.761 180.048 566.485 174.209 566.485 167.636ZM617.061 167.868C617.061 163.924 616.287 160.56 614.741 157.776C613.194 154.915 611.106 152.749 608.477 151.28C605.847 149.733 603.025 148.96 600.009 148.96C596.993 148.96 594.209 149.695 591.657 151.164C589.105 152.633 587.017 154.799 585.393 157.66C583.846 160.444 583.073 163.769 583.073 167.636C583.073 171.503 583.846 174.905 585.393 177.844C587.017 180.705 589.105 182.909 591.657 184.456C594.286 186.003 597.07 186.776 600.009 186.776C603.025 186.776 605.847 186.041 608.477 184.572C611.106 183.025 613.194 180.86 614.741 178.076C616.287 175.215 617.061 171.812 617.061 167.868ZM664.126 186.66H692.778V200H645.682V186.892L673.754 149.076H645.798V135.736H692.43V148.844L664.126 186.66ZM701.176 167.636C701.176 161.14 702.452 155.379 705.004 150.352C707.633 145.325 711.152 141.459 715.56 138.752C720.045 136.045 725.033 134.692 730.524 134.692C735.319 134.692 739.495 135.659 743.052 137.592C746.687 139.525 749.587 141.961 751.752 144.9V135.736H768.108V200H751.752V190.604C749.664 193.62 746.764 196.133 743.052 198.144C739.417 200.077 735.203 201.044 730.408 201.044C724.995 201.044 720.045 199.652 715.56 196.868C711.152 194.084 707.633 190.179 705.004 185.152C702.452 180.048 701.176 174.209 701.176 167.636ZM751.752 167.868C751.752 163.924 750.979 160.56 749.432 157.776C747.885 154.915 745.797 152.749 743.168 151.28C740.539 149.733 737.716 148.96 734.7 148.96C731.684 148.96 728.9 149.695 726.348 151.164C723.796 152.633 721.708 154.799 720.084 157.66C718.537 160.444 717.764 163.769 717.764 167.636C717.764 171.503 718.537 174.905 720.084 177.844C721.708 180.705 723.796 182.909 726.348 184.456C728.977 186.003 731.761 186.776 734.7 186.776C737.716 186.776 740.539 186.041 743.168 184.572C745.797 183.025 747.885 180.86 749.432 178.076C750.979 175.215 751.752 171.812 751.752 167.868ZM791.161 200.812C788.223 200.812 785.787 199.923 783.853 198.144C781.997 196.288 781.069 194.007 781.069 191.3C781.069 188.593 781.997 186.351 783.853 184.572C785.787 182.716 788.223 181.788 791.161 181.788C794.023 181.788 796.381 182.716 798.237 184.572C800.093 186.351 801.021 188.593 801.021 191.3C801.021 194.007 800.093 196.288 798.237 198.144C796.381 199.923 794.023 200.812 791.161 200.812Z" fill="white"/>
<path d="M124.167 283.25H173.833M99.3333 193.125H198.667M62.0833 115.875C62.0833 91.9724 71.2406 69.0487 87.5406 52.147C103.841 35.2453 125.948 25.75 149 25.75C172.052 25.75 194.159 35.2453 210.459 52.147C226.759 69.0487 235.917 91.9724 235.917 115.875C235.925 130.386 232.54 144.683 226.053 157.54C219.565 170.398 210.168 181.433 198.667 189.7L191.937 222.737C191.046 228.827 188.079 234.384 183.576 238.399C179.072 242.415 173.329 244.624 167.389 244.625H130.611C124.671 244.624 118.928 242.415 114.424 238.399C109.921 234.384 106.954 228.827 106.063 222.737L99.3333 189.842C87.8281 181.546 78.4308 170.485 71.9441 157.604C65.4573 144.723 62.0741 130.406 62.0833 115.875V115.875Z" stroke="#0D6EFD" stroke-width="7" stroke-linecap="round" stroke-linejoin="round"/>
</svg>
